<svg width="192" height="192" viewBox="0 0 192 192" xmlns="http://www.w3.org/2000/svg">
  <rect width="192" height="192" fill="#050812"/>
  <circle cx="96" cy="96" r="83" fill="none" stroke="#00eaff" stroke-width="6" opacity="0.8"/>
  <circle cx="96" cy="96" r="59" fill="none" stroke="#00eaff" stroke-width="3" opacity="0.5"/>
  <line x1="96" y1="13" x2="96" y2="26" stroke="#00eaff" stroke-width="3" opacity="0.8"/>
  <line x1="166" y1="96" x2="153" y2="96" stroke="#00eaff" stroke-width="3" opacity="0.8"/>
  <line x1="96" y1="166" x2="96" y2="153" stroke="#00eaff" stroke-width="3" opacity="0.8"/>
  <line x1="13" y1="96" x2="26" y2="96" stroke="#00eaff" stroke-width="3" opacity="0.8"/>
  <text x="96" y="22" text-anchor="middle" fill="#00eaff" font-size="13" font-weight="bold">N</text>
  <text x="164" y="100" text-anchor="middle" fill="#00eaff" font-size="13" font-weight="bold">E</text>
  <text x="96" y="170" text-anchor="middle" fill="#00eaff" font-size="13" font-weight="bold">S</text>
  <text x="28" y="100" text-anchor="middle" fill="#00eaff" font-size="13" font-weight="bold">W</text>
  <polygon points="96,19 106,43 86,43" fill="#00eaff" opacity="0.95"/>
  <line x1="96" y1="64" x2="96" y2="128" stroke="#00eaff" stroke-width="5" stroke-linecap="round"/>
  <circle cx="96" cy="53" r="10" fill="none" stroke="#00eaff" stroke-width="4"/>
  <line x1="77" y1="83" x2="115" y2="83" stroke="#00eaff" stroke-width="4" stroke-linecap="round"/>
  <path d="M53 122 Q96 160 139 122" fill="none" stroke="#00eaff" stroke-width="5" stroke-linecap="round"/>
  <path d="M53 122 Q48 139 64 141" stroke="#00eaff" stroke-width="5" fill="none" stroke-linecap="round"/>
  <path d="M139 122 Q144 139 128 141" stroke="#00eaff" stroke-width="5" fill="none" stroke-linecap="round"/>
</svg>
